<svg width="188" height="38" viewBox="0 0 188 38" fill="none" xmlns="http://www.w3.org/2000/svg">
    <path d="M6.71875 7.25V30H2.03125V7.25H6.71875ZM20.3438 7.25L11.3281 18.4844L6.125 24.0781L5.28125 19.6406L8.79688 14.8281L14.5938 7.25H20.3438ZM15.0156 30L8.3125 19.4844L11.7812 16.5781L20.5625 30H15.0156ZM22.375 7.25H30.8594C32.599 7.25 34.0938 7.51042 35.3438 8.03125C36.6042 8.55208 37.5729 9.32292 38.25 10.3438C38.9271 11.3646 39.2656 12.6198 39.2656 14.1094C39.2656 15.3281 39.0573 16.375 38.6406 17.25C38.2344 18.1146 37.6562 18.8385 36.9062 19.4219C36.1667 19.9948 35.2969 20.4531 34.2969 20.7969L32.8125 21.5781H25.4375L25.4062 17.9219H30.8906C31.7135 17.9219 32.3958 17.776 32.9375 17.4844C33.4792 17.1927 33.8854 16.7865 34.1562 16.2656C34.4375 15.7448 34.5781 15.1406 34.5781 14.4531C34.5781 13.724 34.4427 13.0938 34.1719 12.5625C33.901 12.0312 33.4896 11.625 32.9375 11.3438C32.3854 11.0625 31.6927 10.9219 30.8594 10.9219H27.0625V30H22.375V7.25ZM35.0938 30L29.9062 19.8594L34.8594 19.8281L40.1094 29.7812V30H35.0938ZM61.5625 18.0938V19.1719C61.5625 20.901 61.3281 22.4531 60.8594 23.8281C60.3906 25.2031 59.7292 26.375 58.875 27.3438C58.0208 28.3021 57 29.0365 55.8125 29.5469C54.6354 30.0573 53.3281 30.3125 51.8906 30.3125C50.4635 30.3125 49.1562 30.0573 47.9688 29.5469C46.7917 29.0365 45.7708 28.3021 44.9062 27.3438C44.0417 26.375 43.3698 25.2031 42.8906 23.8281C42.4219 22.4531 42.1875 20.901 42.1875 19.1719V18.0938C42.1875 16.3542 42.4219 14.8021 42.8906 13.4375C43.3594 12.0625 44.0208 10.8906 44.875 9.92188C45.7396 8.95312 46.7604 8.21354 47.9375 7.70312C49.125 7.19271 50.4323 6.9375 51.8594 6.9375C53.2969 6.9375 54.6042 7.19271 55.7812 7.70312C56.9688 8.21354 57.9896 8.95312 58.8438 9.92188C59.7083 10.8906 60.375 12.0625 60.8438 13.4375C61.3229 14.8021 61.5625 16.3542 61.5625 18.0938ZM56.8281 19.1719V18.0625C56.8281 16.8542 56.7188 15.7917 56.5 14.875C56.2812 13.9583 55.9583 13.1875 55.5312 12.5625C55.1042 11.9375 54.5833 11.4688 53.9688 11.1562C53.3542 10.8333 52.651 10.6719 51.8594 10.6719C51.0677 10.6719 50.3646 10.8333 49.75 11.1562C49.1458 11.4688 48.6302 11.9375 48.2031 12.5625C47.7865 13.1875 47.4688 13.9583 47.25 14.875C47.0312 15.7917 46.9219 16.8542 46.9219 18.0625V19.1719C46.9219 20.3698 47.0312 21.4323 47.25 22.3594C47.4688 23.276 47.7917 24.0521 48.2188 24.6875C48.6458 25.3125 49.1667 25.7865 49.7812 26.1094C50.3958 26.4323 51.099 26.5938 51.8906 26.5938C52.6823 26.5938 53.3854 26.4323 54 26.1094C54.6146 25.7865 55.1302 25.3125 55.5469 24.6875C55.9635 24.0521 56.2812 23.276 56.5 22.3594C56.7188 21.4323 56.8281 20.3698 56.8281 19.1719ZM83.4531 7.25V30H78.7656L69.625 14.75V30H64.9375V7.25H69.625L78.7812 22.5156V7.25H83.4531ZM97.0625 11.1406L90.875 30H85.8906L94.3438 7.25H97.5156L97.0625 11.1406ZM102.203 30L96 11.1406L95.5 7.25H98.7031L107.203 30H102.203ZM101.922 21.5312V25.2031H89.9062V21.5312H101.922ZM109.312 7.25H117.797C119.536 7.25 121.031 7.51042 122.281 8.03125C123.542 8.55208 124.51 9.32292 125.188 10.3438C125.865 11.3646 126.203 12.6198 126.203 14.1094C126.203 15.3281 125.995 16.375 125.578 17.25C125.172 18.1146 124.594 18.8385 123.844 19.4219C123.104 19.9948 122.234 20.4531 121.234 20.7969L119.75 21.5781H112.375L112.344 17.9219H117.828C118.651 17.9219 119.333 17.776 119.875 17.4844C120.417 17.1927 120.823 16.7865 121.094 16.2656C121.375 15.7448 121.516 15.1406 121.516 14.4531C121.516 13.724 121.38 13.0938 121.109 12.5625C120.839 12.0312 120.427 11.625 119.875 11.3438C119.323 11.0625 118.63 10.9219 117.797 10.9219H114V30H109.312V7.25ZM122.031 30L116.844 19.8594L121.797 19.8281L127.047 29.7812V30H122.031ZM134.797 7.25V30H130.125V7.25H134.797ZM157.875 18.0938V19.1719C157.875 20.901 157.641 22.4531 157.172 23.8281C156.703 25.2031 156.042 26.375 155.188 27.3438C154.333 28.3021 153.312 29.0365 152.125 29.5469C150.948 30.0573 149.641 30.3125 148.203 30.3125C146.776 30.3125 145.469 30.0573 144.281 29.5469C143.104 29.0365 142.083 28.3021 141.219 27.3438C140.354 26.375 139.682 25.2031 139.203 23.8281C138.734 22.4531 138.5 20.901 138.5 19.1719V18.0938C138.5 16.3542 138.734 14.8021 139.203 13.4375C139.672 12.0625 140.333 10.8906 141.188 9.92188C142.052 8.95312 143.073 8.21354 144.25 7.70312C145.438 7.19271 146.745 6.9375 148.172 6.9375C149.609 6.9375 150.917 7.19271 152.094 7.70312C153.281 8.21354 154.302 8.95312 155.156 9.92188C156.021 10.8906 156.688 12.0625 157.156 13.4375C157.635 14.8021 157.875 16.3542 157.875 18.0938ZM153.141 19.1719V18.0625C153.141 16.8542 153.031 15.7917 152.812 14.875C152.594 13.9583 152.271 13.1875 151.844 12.5625C151.417 11.9375 150.896 11.4688 150.281 11.1562C149.667 10.8333 148.964 10.6719 148.172 10.6719C147.38 10.6719 146.677 10.8333 146.062 11.1562C145.458 11.4688 144.943 11.9375 144.516 12.5625C144.099 13.1875 143.781 13.9583 143.562 14.875C143.344 15.7917 143.234 16.8542 143.234 18.0625V19.1719C143.234 20.3698 143.344 21.4323 143.562 22.3594C143.781 23.276 144.104 24.0521 144.531 24.6875C144.958 25.3125 145.479 25.7865 146.094 26.1094C146.708 26.4323 147.411 26.5938 148.203 26.5938C148.995 26.5938 149.698 26.4323 150.312 26.1094C150.927 25.7865 151.443 25.3125 151.859 24.6875C152.276 24.0521 152.594 23.276 152.812 22.3594C153.031 21.4323 153.141 20.3698 153.141 19.1719Z" fill="#002054"/>
    <rect x="164" y="6" width="6" height="24" fill="#0071FF"/>
    <rect x="173" y="6" width="6" height="24" fill="#54D14B"/>
    <rect x="182" y="6" width="6" height="24" fill="#FFA200"/>
</svg>